<svg xmlns="http://www.w3.org/2000/svg" width="16" height="16" viewBox="0 0 16 16">
  <path fill="currentColor" d="M8,0A7.912,7.912,0,0,0,5.476,15.437a0.4,0.4,0,0,0,.546-0.382c0-.188-0.007-0.686-0.011-1.347-2.224.479-2.693-1.062-2.693-1.062a2.1,2.1,0,0,0-.888-1.158C1.7,11,2.485,11.007,2.485,11.007a1.678,1.678,0,0,1,1.224.816,1.711,1.711,0,0,0,2.327.658,1.687,1.687,0,0,1,.508-1.059C4.768,11.222,2.9,10.543,2.9,7.508a3.046,3.046,0,0,1,.823-2.125,2.824,2.824,0,0,1,.078-2.1S4.474,3.073,6,4.1a7.646,7.646,0,0,1,4,0c1.526-1.025,2.2-.812,2.2-0.812a2.82,2.82,0,0,1,.08,2.1A3.041,3.041,0,0,1,13.1,7.508c0,3.043-1.869,3.712-3.65,3.908a1.881,1.881,0,0,1,.543,1.467c0,1.059-.01,1.913-0.01,2.173a0.4,0.4,0,0,0,.55.381A7.912,7.912,0,0,0,8,0Z"/>
</svg>
