<svg xmlns="http://www.w3.org/2000/svg" width="16" height="16" viewBox="0 0 16 16">
  <path fill="currentColor" d="M8.005,1.442c2.138,0,2.391.008,3.235,0.047a4.43,4.43,0,0,1,1.487.276,2.48,2.48,0,0,1,.92.6,2.479,2.479,0,0,1,.6.92,4.43,4.43,0,0,1,.276,1.486c0.039,0.844.047,1.1,0.047,3.235S14.56,10.4,14.522,11.24a4.431,4.431,0,0,1-.276,1.487,2.651,2.651,0,0,1-1.519,1.519,4.431,4.431,0,0,1-1.487.276c-0.844.039-1.1,0.047-3.235,0.047s-2.391-.008-3.235-0.047a4.43,4.43,0,0,1-1.487-.276,2.48,2.48,0,0,1-.92-0.6,2.482,2.482,0,0,1-.6-0.92,4.43,4.43,0,0,1-.276-1.487c-0.039-.844-0.047-1.1-0.047-3.235s0.008-2.391.047-3.235a4.43,4.43,0,0,1,.276-1.487,2.48,2.48,0,0,1,.6-0.92,2.48,2.48,0,0,1,.92-0.6,4.43,4.43,0,0,1,1.486-.276c0.844-.039,1.1-0.047,3.235-0.047M8.005,0C5.831,0,5.559.009,4.7,0.048A5.876,5.876,0,0,0,2.762.42a3.924,3.924,0,0,0-1.418.923A3.924,3.924,0,0,0,.42,2.762,5.876,5.876,0,0,0,.048,4.7C0.009,5.559,0,5.831,0,8.005s0.009,2.447.048,3.3A5.877,5.877,0,0,0,.42,13.249a3.925,3.925,0,0,0,.923,1.418,3.924,3.924,0,0,0,1.418.923,5.876,5.876,0,0,0,1.943.372c0.854,0.039,1.126.048,3.3,0.048s2.447-.009,3.3-0.048a5.877,5.877,0,0,0,1.943-.372,4.094,4.094,0,0,0,2.341-2.341,5.877,5.877,0,0,0,.372-1.943c0.039-.854.048-1.126,0.048-3.3S16,5.559,15.963,4.7a5.876,5.876,0,0,0-.372-1.943,3.924,3.924,0,0,0-.923-1.418A3.925,3.925,0,0,0,13.249.42,5.877,5.877,0,0,0,11.306.048C10.452,0.009,10.18,0,8.005,0h0Zm0,3.895a4.111,4.111,0,1,0,4.111,4.111A4.111,4.111,0,0,0,8.005,3.895Zm0,6.779a2.669,2.669,0,1,1,2.669-2.669A2.669,2.669,0,0,1,8.005,10.674ZM13.24,3.732a0.961,0.961,0,1,1-.961-0.961A0.961,0.961,0,0,1,13.24,3.732Z"/>
</svg>
