<svg id="light" xmlns="http://www.w3.org/2000/svg" width="16" height="16" viewBox="0 0 16 16">
  <circle fill="currentColor" cx="8" cy="8" r="4"/>
  <path fill="currentColor" d="M12.808,5.737a5.263,5.263,0,0,0-.437-0.775,4.726,4.726,0,0,0-1.334-1.334h0a5.257,5.257,0,0,0-.774-0.437h0l3.394-.849L12.808,5.737h0ZM9.454,2.893h0a5.332,5.332,0,0,0-.53-0.138h0l-0.03-.008-0.016,0h0a4.962,4.962,0,0,0-1.757,0h0l-0.016,0-0.03.008h0a5.332,5.332,0,0,0-.53.138h0c-0.11.031-.226,0.049-0.334,0.087L8,0,9.788,2.981C9.681,2.942,9.565,2.925,9.454,2.893h0ZM4.229,4.229A5.286,5.286,0,0,0,3.192,5.737L2.343,2.343,5.737,3.192A5.286,5.286,0,0,0,4.229,4.229ZM2.873,6.615h0C2.834,6.759,2.785,6.9,2.758,7.045h0a5.026,5.026,0,0,0,0,1.909h0C2.785,9.1,2.834,9.241,2.873,9.385h0c0.037,0.134.061,0.273,0.108,0.4L0,8,2.981,6.212C2.934,6.342,2.91,6.481,2.873,6.615Zm0.319,3.648a5.257,5.257,0,0,0,.437.774h0a4.876,4.876,0,0,0,.6.734,5.285,5.285,0,0,0,1.509,1.037h0l-3.394.849,0.849-3.394h0Zm3.871,2.981L7.086,13.25l0.036,0.005h0a4.964,4.964,0,0,0,1.757,0h0l0.036-.005,0.023-.006c0.167-.03.329-0.084,0.493-0.13,0.119-.033.243-0.053,0.358-0.094L8,16,6.212,13.02c0.115,0.041.239,0.061,0.358,0.094C6.734,13.16,6.9,13.214,7.063,13.244Zm3.974-.873a4.727,4.727,0,0,0,1.334-1.334,5.266,5.266,0,0,0,.437-0.774l0.849,3.394-3.394-.849A5.266,5.266,0,0,0,11.037,12.371ZM13.02,9.788c0.046-.13.071-0.269,0.108-0.4h0c0.039-.144.088-0.284,0.115-0.43,0,0,0-.008,0-0.013,0-.021.006-0.043,0.01-0.064a4.964,4.964,0,0,0,0-1.757c0-.021-0.006-0.043-0.01-0.064,0,0,0-.008,0-0.013-0.027-.146-0.076-0.286-0.115-0.43h0c-0.037-.134-0.061-0.273-0.108-0.4L16,8Z"/>
</svg>
