<svg xmlns="http://www.w3.org/2000/svg" width="16" height="16" viewBox="0 0 16 16">
  <path fill="currentColor" d="M0.963,7.166Q6.6,4.626,8.481,3.817C12.061,2.277,12.8,2.009,13.29,2a0.828,0.828,0,0,1,.5.155,0.569,0.569,0,0,1,.183.361,2.436,2.436,0,0,1,.022.525c-0.194,2.108-1.033,7.225-1.461,9.586-0.181,1-.537,1.334-0.881,1.367-0.749.071-1.317-.512-2.042-1-1.135-.769-1.776-1.248-2.877-2-1.273-.867-0.448-1.344.278-2.124,0.19-.2,3.488-3.307,3.552-3.589a0.279,0.279,0,0,0-.06-0.236,0.288,0.288,0,0,0-.267-0.027q-0.171.04-5.438,3.717a2.4,2.4,0,0,1-1.4.534,8.946,8.946,0,0,1-2-.49C0.589,8.507-.052,8.364,0,7.9A1.369,1.369,0,0,1,.963,7.166Z"/>
</svg>
