<svg xmlns="http://www.w3.org/2000/svg" width="16" height="16" viewBox="0 0 16 16">
  <path fill="currentColor" d="M2.347,3H0.6a0.486,0.486,0,0,0-.6.521C0,4.009.59,6.429,2.76,9.629A6.763,6.763,0,0,0,8.1,13c1.112,0,1.25-.263,1.25-0.716V10.632C9.347,10.105,9.453,10,9.8,10c0.26,0,.7.137,1.743,1.191C12.734,12.44,12.93,13,13.6,13h1.75a0.55,0.55,0,0,0,.606-0.783,7.919,7.919,0,0,0-1.476-2.159C14.069,9.551,13.458,9,13.272,8.732a0.586,0.586,0,0,1,0-.82,23.363,23.363,0,0,0,2.355-4.235A0.469,0.469,0,0,0,15.1,3h-1.75a0.758,0.758,0,0,0-.761.521,15.623,15.623,0,0,1-2.151,3.767,1.266,1.266,0,0,1-.816.566c-0.111,0-.272-0.137-0.272-0.527V3.677C9.347,3.209,9.218,3,8.847,3H6.1a0.432,0.432,0,0,0-.445.423c0,0.444.63,0.546,0.7,1.8V7.932c0,0.595-.1.7-0.325,0.7-0.593,0-2.036-2.294-2.892-4.918A0.766,0.766,0,0,0,2.347,3Z"/>
</svg>
